<?xml version="1.0" encoding="UTF-8"?>
<svg xmlns="http://www.w3.org/2000/svg" xmlns:xlink="http://www.w3.org/1999/xlink" viewBox="0 0 100 100" width="100px" height="100px">
<g id="surface120898879">
<path style=" stroke:none;fill-rule:nonzero;fill:rgb(92.54902%,77.64706%,63.137257%);fill-opacity:1;" d="M 50 14 C 30.128906 14 14 30.128906 14 50 C 14 69.871094 30.128906 86 50 86 C 69.871094 86 86 69.871094 86 50 C 86 30.128906 69.871094 14 50 14 Z M 50 16 C 68.789062 16 84 31.210938 84 50 C 84 68.789062 68.789062 84 50 84 C 31.210938 84 16 68.789062 16 50 C 16 31.210938 31.210938 16 50 16 Z M 50 19 C 32.886719 19 19 32.886719 19 50 C 19 67.113281 32.886719 81 50 81 C 67.113281 81 81 67.113281 81 50 C 81 40.90625 77.078125 32.71875 70.835938 27.046875 C 70.703125 26.921875 70.515625 26.875 70.339844 26.929688 C 70.167969 26.984375 70.035156 27.128906 70 27.304688 C 69.960938 27.484375 70.027344 27.667969 70.164062 27.789062 C 76.207031 33.273438 80 41.191406 80 50 C 80 66.574219 66.574219 80 50 80 C 33.425781 80 20 66.574219 20 50 C 20 33.425781 33.425781 20 50 20 C 53.628906 20 57.109375 20.644531 60.328125 21.828125 C 60.496094 21.886719 60.683594 21.855469 60.820312 21.738281 C 60.957031 21.625 61.023438 21.445312 60.992188 21.269531 C 60.960938 21.09375 60.839844 20.949219 60.671875 20.886719 C 57.34375 19.667969 53.75 19 50 19 Z M 63.480469 22.140625 C 63.25 22.144531 63.050781 22.308594 63.003906 22.535156 C 62.957031 22.761719 63.070312 22.992188 63.277344 23.09375 C 63.945312 23.421875 64.605469 23.78125 65.246094 24.160156 C 65.398438 24.253906 65.59375 24.257812 65.753906 24.167969 C 65.910156 24.082031 66.007812 23.914062 66.007812 23.734375 C 66.007812 23.554688 65.910156 23.386719 65.753906 23.296875 C 65.089844 22.90625 64.414062 22.539062 63.722656 22.195312 C 63.648438 22.15625 63.566406 22.136719 63.480469 22.140625 Z M 67.507812 24.511719 C 67.492188 24.511719 67.472656 24.511719 67.457031 24.511719 C 67.246094 24.53125 67.066406 24.675781 67.011719 24.882812 C 66.957031 25.089844 67.035156 25.304688 67.210938 25.425781 C 67.546875 25.660156 67.875 25.898438 68.195312 26.144531 C 68.335938 26.253906 68.527344 26.28125 68.691406 26.210938 C 68.855469 26.144531 68.972656 25.992188 68.996094 25.8125 C 69.019531 25.636719 68.945312 25.460938 68.804688 25.351562 C 68.472656 25.097656 68.128906 24.847656 67.785156 24.605469 C 67.707031 24.546875 67.609375 24.515625 67.507812 24.511719 Z M 38 36 C 37.488281 36 36.976562 36.195312 36.585938 36.585938 C 35.808594 37.363281 35.808594 38.636719 36.585938 39.414062 L 47.171875 50 L 36.585938 60.585938 C 35.808594 61.363281 35.808594 62.636719 36.585938 63.410156 L 36.585938 63.414062 C 36.972656 63.804688 37.488281 64 38 64 C 38.511719 64 39.023438 63.804688 39.414062 63.414062 L 50 52.828125 L 60.582031 63.410156 C 60.972656 63.800781 61.488281 64 62 64 C 62.511719 64 63.023438 63.804688 63.414062 63.414062 C 64.191406 62.636719 64.191406 61.363281 63.414062 60.585938 L 52.828125 50 L 63.414062 39.414062 C 64.191406 38.636719 64.191406 37.363281 63.414062 36.585938 C 63.027344 36.195312 62.511719 36 62 36 C 61.488281 36 60.976562 36.195312 60.585938 36.585938 L 50 47.171875 L 39.414062 36.585938 C 39.023438 36.195312 38.511719 36 38 36 Z M 38 37 C 38.257812 37 38.507812 37.09375 38.707031 37.292969 L 50 48.585938 L 61.292969 37.292969 C 61.492188 37.09375 61.742188 37 62 37 C 62.257812 37 62.507812 37.097656 62.707031 37.292969 C 63.101562 37.6875 63.101562 38.3125 62.707031 38.707031 L 51.414062 50 L 62.707031 61.292969 C 63.101562 61.6875 63.101562 62.3125 62.707031 62.707031 C 62.507812 62.90625 62.257812 63 62 63 C 61.742188 63 61.488281 62.90625 61.292969 62.707031 L 50 51.414062 L 38.707031 62.707031 C 38.507812 62.90625 38.257812 63 38 63 C 37.742188 63 37.488281 62.90625 37.292969 62.707031 C 36.898438 62.3125 36.898438 61.6875 37.292969 61.292969 L 48.585938 50 L 37.292969 38.707031 C 36.898438 38.3125 36.898438 37.6875 37.292969 37.292969 C 37.492188 37.09375 37.742188 37 38 37 Z M 38 37 "/>
</g>
</svg>
